<?xml version="1.0" standalone="no"?>
<!DOCTYPE svg PUBLIC "-//W3C//DTD SVG 20010904//EN"
 "http://www.w3.org/TR/2001/REC-SVG-20010904/DTD/svg10.dtd">
<svg version="1.0" xmlns="http://www.w3.org/2000/svg"
 width="700.000000pt" height="700.000000pt" viewBox="0 0 700.000000 700.000000"
 preserveAspectRatio="xMidYMid meet">
<metadata>
Created by potrace 1.11, written by Peter Selinger 2001-2013
</metadata>
<g transform="translate(0.000000,700.000000) scale(0.100000,-0.100000)"
fill="#000000" stroke="none">
<path d="M0 4910 l0 -2090 1985 0 1985 0 0 -225 0 -225 -1985 0 -1985 0 0
-1185 0 -1185 3500 0 3500 0 0 1185 0 1185 -850 0 -850 0 0 225 0 225 850 0
850 0 0 2090 0 2090 -3500 0 -3500 0 0 -2090z m1630 398 l0 -1052 57 59 c103
106 250 154 412 135 176 -20 286 -94 352 -235 55 -116 59 -159 59 -632 l0
-433 -225 0 -225 0 0 378 c0 423 -4 458 -64 518 -81 81 -247 63 -312 -35 -51
-78 -54 -105 -54 -498 l0 -363 -225 0 -225 0 0 1605 0 1605 225 0 225 0 0
-1052z m2040 -875 c160 -32 289 -102 392 -211 115 -122 168 -262 168 -441 0
-171 -53 -315 -156 -430 -135 -148 -322 -228 -564 -238 -373 -16 -669 163
-767 461 -22 69 -26 99 -27 201 0 138 17 213 70 315 146 279 510 420 884 343z
m1744 1 c108 -26 184 -71 276 -164 98 -98 147 -183 181 -321 18 -71 21 -102
16 -204 -3 -77 -12 -141 -25 -180 -85 -266 -295 -436 -557 -452 -148 -9 -268
24 -375 103 l-60 44 0 -1110 0 -1110 -225 0 -225 0 0 1685 0 1685 225 0 225 0
0 -70 0 -70 42 46 c113 123 300 167 502 118z"/>
<path d="M3403 4060 c-147 -31 -242 -178 -213 -331 27 -141 115 -218 261 -227
175 -10 293 88 307 254 16 200 -155 346 -355 304z"/>
<path d="M5073 4060 c-179 -37 -270 -241 -187 -416 41 -86 123 -135 236 -142
130 -8 224 40 275 141 73 146 14 336 -124 395 -58 24 -143 34 -200 22z"/>
</g>
</svg>
