<?xml version="1.0" encoding="UTF-8" standalone="no"?>
<svg
   xmlns:dc="http://purl.org/dc/elements/1.1/"
   xmlns:cc="http://creativecommons.org/ns#"
   xmlns:rdf="http://www.w3.org/1999/02/22-rdf-syntax-ns#"
   xmlns:svg="http://www.w3.org/2000/svg"
   xmlns="http://www.w3.org/2000/svg"
   xmlns:sodipodi="http://sodipodi.sourceforge.net/DTD/sodipodi-0.dtd"
   xmlns:inkscape="http://www.inkscape.org/namespaces/inkscape"
   sodipodi:docname="hopla_favicon.svg"
   width="800"
   height="800"
   viewBox="0 0 211.66666 211.66667"
   version="1.1"
   id="svg8"
   inkscape:version="1.0 (4035a4fb49, 2020-05-01)">
  <defs
     id="defs2">
    <clipPath
       id="clipPath845"
       clipPathUnits="userSpaceOnUse">
      <rect
         y="-187.14581"
         x="0.00044999499"
         height="187.47679"
         width="449.99323"
         id="rect847"
         style="fill:#e62ae3;fill-opacity:0.827451;stroke-width:0.75" />
    </clipPath>
    <clipPath
       id="clipPath849"
       clipPathUnits="userSpaceOnUse">
      <rect
         y="-187.10486"
         x="0.00045009347"
         height="187.43576"
         width="450.09174"
         id="rect851"
         style="fill:#e62ae3;fill-opacity:0.827451;stroke-width:0.75" />
    </clipPath>
    <clipPath
       id="clipPath853"
       clipPathUnits="userSpaceOnUse">
      <rect
         transform="scale(1,-1)"
         y="-174.69398"
         x="-1.2686382e-11"
         height="175.02646"
         width="420.10919"
         id="rect855"
         style="fill:#e62ae3;fill-opacity:0.827451;stroke-width:0.700193" />
    </clipPath>
  </defs>
  <sodipodi:namedview
     inkscape:window-maximized="1"
     inkscape:window-y="-11"
     inkscape:window-x="-11"
     inkscape:window-height="2080"
     inkscape:window-width="3840"
     inkscape:snap-global="true"
     inkscape:snap-bbox="true"
     units="px"
     id="base"
     pagecolor="#393939"
     bordercolor="#9aaa61"
     borderopacity="1"
     inkscape:pageopacity="0"
     inkscape:pageshadow="2"
     inkscape:zoom="1"
     inkscape:cx="605.08637"
     inkscape:cy="381.65025"
     inkscape:document-units="mm"
     inkscape:current-layer="layer1"
     inkscape:document-rotation="0"
     showgrid="false"
     inkscape:pagecheckerboard="false" />
  <metadata
     id="metadata5">
    <rdf:RDF>
      <cc:Work
         rdf:about="">
        <dc:format>image/svg+xml</dc:format>
        <dc:type
           rdf:resource="http://purl.org/dc/dcmitype/StillImage" />
        <dc:title></dc:title>
      </cc:Work>
    </rdf:RDF>
  </metadata>
  <g
     inkscape:label="Ebene 1"
     inkscape:groupmode="layer"
     id="layer1">
    <rect
       y="0"
       x="0"
       height="211.66667"
       width="211.66667"
       id="rect830"
       style="fill:#1e2b37;fill-opacity:1;stroke-width:0.264583" />
    <g
       transform="matrix(0.85940961,0,0,-0.85940961,-52.112702,180.11115)"
       inkscape:label="hoplaLogo_01_bw"
       id="g10"><g
   clip-path="url(#clipPath853)"
   transform="matrix(1.071134,0,0,1.071134,4.49995e-4,0.02514143)"
   id="g12">
  <path
     sodipodi:nodetypes="cccsssccsscccc"
     inkscape:connector-curvature="0"
     id="path16"
     style="fill:#ffffff;fill-opacity:1;fill-rule:nonzero;stroke:none"
     d="M 95.352,136.316 V 69.179 h 14.718 v 21.273 c 0,4.856 1.864,9.867 7.688,9.867 5.902,0 6.633,-5.011 6.633,-9.867 V 69.179 h 14.722 v 25.398 c 0,10.516 -5.097,17.473 -15.613,17.473 -5.742,0 -9.867,-2.102 -13.266,-6.633 h -0.164 v 69.27769 H 95.352" />
  <path
     inkscape:connector-curvature="0"
     id="path18"
     style="fill:#ffffff;fill-opacity:1;fill-rule:nonzero;stroke:none"
     d="m 170.672,112.05 c -13.348,0 -24.996,-8.008 -24.996,-22.164 0,-14.156 11.73,-22.082 24.996,-22.082 13.348,0 24.996,8.008 24.996,22.082 0,14.156 -11.648,22.164 -24.996,22.164 m 0,-12.781 c 5.984,0 9.465,-4.286 9.465,-9.383 0,-5.258 -3.481,-9.301 -9.465,-9.301 -5.984,0 -9.465,4.043 -9.465,9.301 0,5.097 3.481,9.383 9.465,9.383" />
  <path
     sodipodi:nodetypes="cccccsssccccsssc"
     inkscape:connector-curvature="0"
     id="path20"
     style="fill:#ffffff;fill-opacity:1;fill-rule:nonzero;stroke:none"
     d="M 216.547,110.675 H 201.824 V -0.35343709 h 14.723 V 73.14 c 3.152,-3.637 8.09,-5.336 12.859,-5.336 12.297,0 20.789,10.031 20.789,22 0,11.89 -8.574,22.246 -20.949,22.246 -4.855,0 -9.867,-1.942 -12.539,-6.067 h -0.16 v 4.692 m 8.976,-11.406 c 5.989,0 9.465,-4.286 9.465,-9.383 0,-5.258 -3.476,-9.301 -9.465,-9.301 -5.984,0 -9.461,4.043 -9.461,9.301 0,5.097 3.477,9.383 9.461,9.383" />
  <path
     sodipodi:nodetypes="cccc"
     inkscape:connector-curvature="0"
     id="path26"
     style="fill:#ffffff;fill-opacity:1;fill-rule:nonzero;stroke:none;stroke-width:0.542692"
     d="M 286.53802,43.573 V 58.292 H 230.777 V 43.573" />
  <path
     sodipodi:nodetypes="cccc"
     inkscape:connector-curvature="0"
     id="path28"
     style="fill:#ffffff;fill-opacity:1;fill-rule:nonzero;stroke:none;stroke-width:0.834881"
     d="M 187.03005,43.573 V 58.292 H 56.610418 V 43.573" />
</g>


</g>
  </g>
</svg>
