<?xml version="1.0" encoding="UTF-8"?>
<svg version="1.1" viewBox="0 0 599.99 249.97" xml:space="preserve" xmlns="http://www.w3.org/2000/svg" xmlns:cc="http://creativecommons.org/ns#" xmlns:dc="http://purl.org/dc/elements/1.1/" xmlns:rdf="http://www.w3.org/1999/02/22-rdf-syntax-ns#"><metadata><rdf:RDF><cc:Work rdf:about=""><dc:format>image/svg+xml</dc:format><dc:type rdf:resource="http://purl.org/dc/dcmitype/StillImage"/><dc:title/></cc:Work></rdf:RDF></metadata><defs><clipPath id="clipPath845"><rect x=".00044999" y="-187.15" width="449.99" height="187.48" fill="#e62ae3" fill-opacity=".82745" stroke-width=".75"/></clipPath><clipPath id="clipPath849"><rect x=".00045009" y="-187.1" width="450.09" height="187.44" fill="#e62ae3" fill-opacity=".82745" stroke-width=".75"/></clipPath><clipPath id="clipPath853"><rect transform="scale(1,-1)" x="-1.2686e-11" y="-174.69" width="420.11" height="175.03" fill="#e62ae3" fill-opacity=".82745" stroke-width=".70019"/></clipPath></defs><g transform="matrix(1.3333 0 0 -1.3333 -.00059999 249.53)"><g transform="matrix(1.0711 0 0 1.0711 .00045 .025141)" clip-path="url(#clipPath853)"><path d="m0 174.69h420.11v-175.03h-420.11z" fill="#1e2b37"/><g fill="#fff"><path d="m95.352 136.32v-67.137h14.718v21.273c0 4.856 1.864 9.867 7.688 9.867 5.902 0 6.633-5.011 6.633-9.867v-21.273h14.722v25.398c0 10.516-5.097 17.473-15.613 17.473-5.742 0-9.867-2.102-13.266-6.633h-0.164v69.278h-14.718"/><path d="m170.67 112.05c-13.348 0-24.996-8.008-24.996-22.164s11.73-22.082 24.996-22.082c13.348 0 24.996 8.008 24.996 22.082 0 14.156-11.648 22.164-24.996 22.164m0-12.781c5.984 0 9.465-4.286 9.465-9.383 0-5.258-3.481-9.301-9.465-9.301s-9.465 4.043-9.465 9.301c0 5.097 3.481 9.383 9.465 9.383"/><path d="m216.55 110.68h-14.723v-111.03h14.723v73.493c3.152-3.637 8.09-5.336 12.859-5.336 12.297 0 20.789 10.031 20.789 22 0 11.89-8.574 22.246-20.949 22.246-4.855 0-9.867-1.942-12.539-6.067h-0.16v4.692m8.976-11.406c5.989 0 9.465-4.286 9.465-9.383 0-5.258-3.476-9.301-9.465-9.301-5.984 0-9.461 4.043-9.461 9.301 0 5.097 3.477 9.383 9.461 9.383"/><path d="m272.17 174.69h-14.719v-105.52h14.719"/><path d="m303.61 99.269c5.989 0 9.465-4.286 9.465-9.383 0-5.258-3.476-9.301-9.465-9.301-5.984 0-9.461 4.043-9.461 9.301 0 5.097 3.477 9.383 9.461 9.383m23.703 11.406h-14.722v-4.043c-3.074 3.637-8.09 5.418-12.864 5.418-12.292 0-20.789-10.192-20.789-22.082 0-11.891 8.657-22.164 20.954-22.164 4.851 0 9.949 1.859 12.539 5.984h0.16v-4.609h14.722v41.496"/><path d="m420.11 43.573v14.719h-189.33v-14.719"/><path d="m187.1 43.573v14.719h-187.11v-14.719"/></g></g><g transform="scale(.99978 -1.0002)" clip-path="url(#clipPath849)" fill="#fff" stroke-width="2.0649px" aria-label="KALK"><path d="m295.33 0.32212h-10.365l-23.755-26.739-5.969 6.3723v20.367h-7.9855v-60.053h7.9855v31.337l29.159-31.337h9.6794l-26.82 28.232z"/><path d="m351.68 0.32212h-8.5098l-5.8883-16.737h-25.973l-5.8883 16.737h-8.1065l21.859-60.053h10.647zm-16.858-23.594-10.526-29.482-10.567 29.482z"/><path d="m398.78 0.32212h-37.992v-60.053h7.9855v52.954h30.006z"/><path d="m455.04 0.32212h-10.365l-23.755-26.739-5.969 6.3723v20.367h-7.9855v-60.053h7.9855v31.337l29.159-31.337h9.6794l-26.82 28.232z"/></g>

<circle transform="scale(1,-1)" cx="224.06" cy="-7.5579" r="7.8877" clip-path="url(#clipPath845)" fill="#1e2b37" style="paint-order:stroke fill markers"/></g></svg>
